<mxfile host="app.diagrams.net" agent="Mozilla/5.0 (Windows NT 10.0; Win64; x64) AppleWebKit/537.36 (KHTML, like Gecko) Chrome/136.0.0.0 Safari/537.36" scale="1" border="0" version="27.0.9">
  <diagram name="Page-1" id="ZO3WI9TBQkAjl9TfC57V">
    <mxGraphModel dx="1042" dy="623" grid="1" gridSize="10" guides="1" tooltips="1" connect="1" arrows="1" fold="1" page="1" pageScale="1" pageWidth="1200" pageHeight="1920" background="none" math="0" shadow="1">
      <root>
        <mxCell id="0" />
        <mxCell id="1" parent="0" />
        <mxCell id="u8hdL_Qs9928aDz1gfob-2" value="" style="rounded=1;whiteSpace=wrap;html=1;fillColor=none;dashed=1;" parent="1" vertex="1">
          <mxGeometry x="30" y="294" width="470" height="496" as="geometry" />
        </mxCell>
        <mxCell id="u8hdL_Qs9928aDz1gfob-4" value="" style="rounded=1;whiteSpace=wrap;html=1;fillColor=none;dashed=1;" parent="1" vertex="1">
          <mxGeometry x="574" y="299" width="250" height="491" as="geometry" />
        </mxCell>
        <mxCell id="nb4hkocIdsf9RyJtfris-9" value="&lt;b&gt;&lt;font style=&quot;font-size: 18px;&quot;&gt;crm_cust_info&lt;/font&gt;&lt;/b&gt;" style="swimlane;fontStyle=0;childLayout=stackLayout;horizontal=1;startSize=26;fillColor=#dae8fc;horizontalStack=0;resizeParent=1;resizeParentMax=0;resizeLast=0;collapsible=1;marginBottom=0;html=1;rounded=1;strokeColor=#6c8ebf;" parent="1" vertex="1">
          <mxGeometry x="280" y="570" width="170" height="124" as="geometry" />
        </mxCell>
        <mxCell id="nb4hkocIdsf9RyJtfris-10" value="&lt;font style=&quot;font-size: 16px;&quot;&gt;cst_id&lt;/font&gt;" style="text;strokeColor=none;fillColor=none;align=left;verticalAlign=top;spacingLeft=4;spacingRight=4;overflow=hidden;rotatable=0;points=[[0,0.5],[1,0.5]];portConstraint=eastwest;whiteSpace=wrap;html=1;" parent="nb4hkocIdsf9RyJtfris-9" vertex="1">
          <mxGeometry y="26" width="170" height="34" as="geometry" />
        </mxCell>
        <mxCell id="nb4hkocIdsf9RyJtfris-31" value="&lt;font style=&quot;font-size: 16px;&quot;&gt;cst_key&lt;/font&gt;" style="text;strokeColor=none;fillColor=none;align=left;verticalAlign=top;spacingLeft=4;spacingRight=4;overflow=hidden;rotatable=0;points=[[0,0.5],[1,0.5]];portConstraint=eastwest;whiteSpace=wrap;html=1;" parent="nb4hkocIdsf9RyJtfris-9" vertex="1">
          <mxGeometry y="60" width="170" height="34" as="geometry" />
        </mxCell>
        <mxCell id="5AuRp_iySyUQa7WNmp_m-5" value="&lt;font style=&quot;font-size: 16px;&quot;&gt;&lt;b style=&quot;&quot;&gt;Customers&lt;/b&gt;&lt;/font&gt;" style="text;html=1;strokeColor=#82b366;fillColor=#d5e8d4;align=center;verticalAlign=middle;whiteSpace=wrap;overflow=hidden;" parent="nb4hkocIdsf9RyJtfris-9" vertex="1">
          <mxGeometry y="94" width="170" height="30" as="geometry" />
        </mxCell>
        <mxCell id="nb4hkocIdsf9RyJtfris-1" value="Data Integration&amp;nbsp;&lt;span style=&quot;background-color: transparent; color: light-dark(rgb(0, 0, 0), rgb(255, 255, 255)); font-size: x-small;&quot;&gt;(How Tables are Connected)&lt;/span&gt;" style="rounded=0;whiteSpace=wrap;html=1;fillColor=none;strokeColor=none;fontSize=40;align=left;" parent="1" vertex="1">
          <mxGeometry x="30" y="60" width="610" height="60" as="geometry" />
        </mxCell>
        <mxCell id="nb4hkocIdsf9RyJtfris-17" value="&lt;span style=&quot;font-size: 18px;&quot;&gt;&lt;b&gt;crm_sales_details&lt;/b&gt;&lt;/span&gt;" style="swimlane;fontStyle=0;childLayout=stackLayout;horizontal=1;startSize=26;fillColor=#dae8fc;horizontalStack=0;resizeParent=1;resizeParentMax=0;resizeLast=0;collapsible=1;marginBottom=0;html=1;rounded=1;strokeColor=#6c8ebf;" parent="1" vertex="1">
          <mxGeometry x="50" y="466" width="170" height="124" as="geometry" />
        </mxCell>
        <mxCell id="nb4hkocIdsf9RyJtfris-18" value="&lt;font style=&quot;font-size: 16px;&quot;&gt;prd_key&lt;/font&gt;" style="text;strokeColor=none;fillColor=none;align=left;verticalAlign=top;spacingLeft=4;spacingRight=4;overflow=hidden;rotatable=0;points=[[0,0.5],[1,0.5]];portConstraint=eastwest;whiteSpace=wrap;html=1;shadow=0;textShadow=0;" parent="nb4hkocIdsf9RyJtfris-17" vertex="1">
          <mxGeometry y="26" width="170" height="34" as="geometry" />
        </mxCell>
        <mxCell id="nb4hkocIdsf9RyJtfris-22" value="&lt;span style=&quot;font-size: 16px;&quot;&gt;cust_id&lt;/span&gt;" style="text;strokeColor=none;fillColor=none;align=left;verticalAlign=top;spacingLeft=4;spacingRight=4;overflow=hidden;rotatable=0;points=[[0,0.5],[1,0.5]];portConstraint=eastwest;whiteSpace=wrap;html=1;shadow=0;textShadow=0;" parent="nb4hkocIdsf9RyJtfris-17" vertex="1">
          <mxGeometry y="60" width="170" height="34" as="geometry" />
        </mxCell>
        <mxCell id="5AuRp_iySyUQa7WNmp_m-8" value="&lt;font style=&quot;font-size: 16px;&quot;&gt;&lt;b style=&quot;&quot;&gt;Sales&lt;/b&gt;&lt;/font&gt;" style="text;html=1;strokeColor=#9673a6;fillColor=#e1d5e7;align=center;verticalAlign=middle;whiteSpace=wrap;overflow=hidden;" parent="nb4hkocIdsf9RyJtfris-17" vertex="1">
          <mxGeometry y="94" width="170" height="30" as="geometry" />
        </mxCell>
        <mxCell id="nb4hkocIdsf9RyJtfris-15" value="&lt;span style=&quot;font-size: 18px;&quot;&gt;&lt;b&gt;crm_prd_info&lt;/b&gt;&lt;/span&gt;" style="swimlane;fontStyle=0;childLayout=stackLayout;horizontal=1;startSize=26;fillColor=#dae8fc;horizontalStack=0;resizeParent=1;resizeParentMax=0;resizeLast=0;collapsible=1;marginBottom=0;html=1;rounded=1;strokeColor=#6c8ebf;" parent="1" vertex="1">
          <mxGeometry x="280" y="400" width="170" height="90" as="geometry" />
        </mxCell>
        <mxCell id="nb4hkocIdsf9RyJtfris-16" value="&lt;font style=&quot;font-size: 16px;&quot;&gt;prd_key&lt;/font&gt;" style="text;strokeColor=none;fillColor=none;align=left;verticalAlign=top;spacingLeft=4;spacingRight=4;overflow=hidden;rotatable=0;points=[[0,0.5],[1,0.5]];portConstraint=eastwest;whiteSpace=wrap;html=1;" parent="nb4hkocIdsf9RyJtfris-15" vertex="1">
          <mxGeometry y="26" width="170" height="34" as="geometry" />
        </mxCell>
        <mxCell id="5AuRp_iySyUQa7WNmp_m-1" value="&lt;font style=&quot;font-size: 16px;&quot;&gt;&lt;b style=&quot;&quot;&gt;Products&lt;/b&gt;&lt;/font&gt;" style="text;html=1;strokeColor=#b85450;fillColor=#f8cecc;align=center;verticalAlign=middle;whiteSpace=wrap;overflow=hidden;" parent="nb4hkocIdsf9RyJtfris-15" vertex="1">
          <mxGeometry y="60" width="170" height="30" as="geometry" />
        </mxCell>
        <mxCell id="nb4hkocIdsf9RyJtfris-23" style="edgeStyle=orthogonalEdgeStyle;rounded=0;orthogonalLoop=1;jettySize=auto;html=1;entryX=0;entryY=0.5;entryDx=0;entryDy=0;" parent="1" source="nb4hkocIdsf9RyJtfris-18" target="nb4hkocIdsf9RyJtfris-16" edge="1">
          <mxGeometry relative="1" as="geometry" />
        </mxCell>
        <mxCell id="nb4hkocIdsf9RyJtfris-24" style="edgeStyle=orthogonalEdgeStyle;rounded=0;orthogonalLoop=1;jettySize=auto;html=1;entryX=0;entryY=0.5;entryDx=0;entryDy=0;" parent="1" source="nb4hkocIdsf9RyJtfris-22" target="nb4hkocIdsf9RyJtfris-10" edge="1">
          <mxGeometry relative="1" as="geometry" />
        </mxCell>
        <mxCell id="nb4hkocIdsf9RyJtfris-25" value="&lt;span style=&quot;font-size: 18px;&quot;&gt;&lt;b&gt;erp_cust_az12&lt;/b&gt;&lt;/span&gt;" style="swimlane;fontStyle=0;childLayout=stackLayout;horizontal=1;startSize=26;fillColor=#fff2cc;horizontalStack=0;resizeParent=1;resizeParentMax=0;resizeLast=0;collapsible=1;marginBottom=0;html=1;rounded=1;strokeColor=#d6b656;" parent="1" vertex="1">
          <mxGeometry x="614" y="524.5" width="170" height="90" as="geometry" />
        </mxCell>
        <mxCell id="nb4hkocIdsf9RyJtfris-26" value="&lt;font style=&quot;font-size: 16px;&quot;&gt;cid&lt;/font&gt;" style="text;strokeColor=none;fillColor=none;align=left;verticalAlign=top;spacingLeft=4;spacingRight=4;overflow=hidden;rotatable=0;points=[[0,0.5],[1,0.5]];portConstraint=eastwest;whiteSpace=wrap;html=1;" parent="nb4hkocIdsf9RyJtfris-25" vertex="1">
          <mxGeometry y="26" width="170" height="34" as="geometry" />
        </mxCell>
        <mxCell id="5AuRp_iySyUQa7WNmp_m-7" value="&lt;font style=&quot;font-size: 16px;&quot;&gt;&lt;b style=&quot;&quot;&gt;Customers&lt;/b&gt;&lt;/font&gt;" style="text;html=1;strokeColor=#82b366;fillColor=#d5e8d4;align=center;verticalAlign=middle;whiteSpace=wrap;overflow=hidden;" parent="nb4hkocIdsf9RyJtfris-25" vertex="1">
          <mxGeometry y="60" width="170" height="30" as="geometry" />
        </mxCell>
        <mxCell id="nb4hkocIdsf9RyJtfris-27" value="&lt;span style=&quot;font-size: 18px;&quot;&gt;&lt;b&gt;erp_loc_a101&lt;/b&gt;&lt;/span&gt;" style="swimlane;fontStyle=0;childLayout=stackLayout;horizontal=1;startSize=26;fillColor=#fff2cc;horizontalStack=0;resizeParent=1;resizeParentMax=0;resizeLast=0;collapsible=1;marginBottom=0;html=1;rounded=1;strokeColor=#d6b656;" parent="1" vertex="1">
          <mxGeometry x="614" y="680" width="170" height="90" as="geometry" />
        </mxCell>
        <mxCell id="nb4hkocIdsf9RyJtfris-28" value="&lt;font style=&quot;font-size: 16px;&quot;&gt;cid&lt;/font&gt;" style="text;strokeColor=none;fillColor=none;align=left;verticalAlign=top;spacingLeft=4;spacingRight=4;overflow=hidden;rotatable=0;points=[[0,0.5],[1,0.5]];portConstraint=eastwest;whiteSpace=wrap;html=1;" parent="nb4hkocIdsf9RyJtfris-27" vertex="1">
          <mxGeometry y="26" width="170" height="34" as="geometry" />
        </mxCell>
        <mxCell id="5AuRp_iySyUQa7WNmp_m-6" value="&lt;font style=&quot;font-size: 16px;&quot;&gt;&lt;b style=&quot;&quot;&gt;Customers&lt;/b&gt;&lt;/font&gt;" style="text;html=1;strokeColor=#82b366;fillColor=#d5e8d4;align=center;verticalAlign=middle;whiteSpace=wrap;overflow=hidden;" parent="nb4hkocIdsf9RyJtfris-27" vertex="1">
          <mxGeometry y="60" width="170" height="30" as="geometry" />
        </mxCell>
        <mxCell id="nb4hkocIdsf9RyJtfris-29" value="&lt;span style=&quot;font-size: 18px;&quot;&gt;&lt;b&gt;erp_px_cat_g1v2&lt;/b&gt;&lt;/span&gt;" style="swimlane;fontStyle=0;childLayout=stackLayout;horizontal=1;startSize=26;fillColor=#fff2cc;horizontalStack=0;resizeParent=1;resizeParentMax=0;resizeLast=0;collapsible=1;marginBottom=0;html=1;rounded=1;strokeColor=#d6b656;" parent="1" vertex="1">
          <mxGeometry x="614" y="354" width="170" height="90" as="geometry" />
        </mxCell>
        <mxCell id="nb4hkocIdsf9RyJtfris-30" value="&lt;font style=&quot;font-size: 16px;&quot;&gt;cid&lt;/font&gt;" style="text;strokeColor=none;fillColor=none;align=left;verticalAlign=top;spacingLeft=4;spacingRight=4;overflow=hidden;rotatable=0;points=[[0,0.5],[1,0.5]];portConstraint=eastwest;whiteSpace=wrap;html=1;" parent="nb4hkocIdsf9RyJtfris-29" vertex="1">
          <mxGeometry y="26" width="170" height="34" as="geometry" />
        </mxCell>
        <mxCell id="5AuRp_iySyUQa7WNmp_m-4" value="&lt;font style=&quot;font-size: 16px;&quot;&gt;&lt;b style=&quot;&quot;&gt;Products&lt;/b&gt;&lt;/font&gt;" style="text;html=1;strokeColor=#b85450;fillColor=#f8cecc;align=center;verticalAlign=middle;whiteSpace=wrap;overflow=hidden;" parent="nb4hkocIdsf9RyJtfris-29" vertex="1">
          <mxGeometry y="60" width="170" height="30" as="geometry" />
        </mxCell>
        <mxCell id="nb4hkocIdsf9RyJtfris-32" style="edgeStyle=orthogonalEdgeStyle;rounded=0;orthogonalLoop=1;jettySize=auto;html=1;entryX=0;entryY=0.5;entryDx=0;entryDy=0;" parent="1" source="nb4hkocIdsf9RyJtfris-31" target="nb4hkocIdsf9RyJtfris-28" edge="1">
          <mxGeometry relative="1" as="geometry" />
        </mxCell>
        <mxCell id="nb4hkocIdsf9RyJtfris-34" style="edgeStyle=orthogonalEdgeStyle;rounded=0;orthogonalLoop=1;jettySize=auto;html=1;entryX=-0.002;entryY=0.318;entryDx=0;entryDy=0;entryPerimeter=0;" parent="1" source="nb4hkocIdsf9RyJtfris-16" target="nb4hkocIdsf9RyJtfris-30" edge="1">
          <mxGeometry relative="1" as="geometry" />
        </mxCell>
        <mxCell id="u8hdL_Qs9928aDz1gfob-3" style="edgeStyle=orthogonalEdgeStyle;rounded=0;orthogonalLoop=1;jettySize=auto;html=1;entryX=0;entryY=0.5;entryDx=0;entryDy=0;" parent="1" source="nb4hkocIdsf9RyJtfris-31" target="nb4hkocIdsf9RyJtfris-26" edge="1">
          <mxGeometry relative="1" as="geometry" />
        </mxCell>
        <mxCell id="u8hdL_Qs9928aDz1gfob-8" value="&lt;font&gt;Sales Transactions&lt;/font&gt;" style="rounded=1;whiteSpace=wrap;html=1;fillColor=none;strokeColor=none;fontSize=15;" parent="1" vertex="1">
          <mxGeometry x="30" y="430" width="210" height="30" as="geometry" />
        </mxCell>
        <mxCell id="u8hdL_Qs9928aDz1gfob-9" value="&lt;font style=&quot;font-size: 15px;&quot;&gt;Customer Information&lt;/font&gt;" style="rounded=1;whiteSpace=wrap;html=1;fillColor=none;strokeColor=none;" parent="1" vertex="1">
          <mxGeometry x="260" y="540" width="210" height="30" as="geometry" />
        </mxCell>
        <mxCell id="u8hdL_Qs9928aDz1gfob-10" value="&lt;font style=&quot;font-size: 15px;&quot;&gt;Current and History Product Information&lt;/font&gt;" style="rounded=1;whiteSpace=wrap;html=1;fillColor=none;strokeColor=none;" parent="1" vertex="1">
          <mxGeometry x="260" y="360" width="210" height="30" as="geometry" />
        </mxCell>
        <mxCell id="u8hdL_Qs9928aDz1gfob-12" value="&lt;font style=&quot;font-size: 15px;&quot;&gt;Extra Customer Information&lt;/font&gt;&lt;div&gt;&lt;span style=&quot;font-size: 15px;&quot;&gt;(Birthday)&lt;/span&gt;&lt;/div&gt;" style="rounded=1;whiteSpace=wrap;html=1;fillColor=none;strokeColor=none;" parent="1" vertex="1">
          <mxGeometry x="594" y="480" width="210" height="34" as="geometry" />
        </mxCell>
        <mxCell id="u8hdL_Qs9928aDz1gfob-13" value="&lt;font&gt;Product Categories&lt;/font&gt;" style="rounded=1;whiteSpace=wrap;html=1;fillColor=none;strokeColor=none;fontSize=15;" parent="1" vertex="1">
          <mxGeometry x="594" y="324" width="210" height="30" as="geometry" />
        </mxCell>
        <mxCell id="u8hdL_Qs9928aDz1gfob-14" value="&lt;font style=&quot;font-size: 15px;&quot;&gt;Extra Customer Information&lt;/font&gt;&lt;div&gt;&lt;span style=&quot;font-size: 15px;&quot;&gt;(Country)&lt;/span&gt;&lt;/div&gt;" style="rounded=1;whiteSpace=wrap;html=1;fillColor=none;strokeColor=none;" parent="1" vertex="1">
          <mxGeometry x="594" y="640" width="210" height="34" as="geometry" />
        </mxCell>
        <mxCell id="u8hdL_Qs9928aDz1gfob-16" value="&lt;b&gt;&lt;font style=&quot;font-size: 20px;&quot;&gt;CRM&lt;/font&gt;&lt;/b&gt;" style="rounded=1;whiteSpace=wrap;html=1;fillColor=#dae8fc;strokeColor=#6c8ebf;" parent="1" vertex="1">
          <mxGeometry x="205" y="270" width="120" height="40" as="geometry" />
        </mxCell>
        <mxCell id="u8hdL_Qs9928aDz1gfob-17" value="&lt;b&gt;&lt;font style=&quot;font-size: 20px;&quot;&gt;ERP&lt;/font&gt;&lt;/b&gt;" style="rounded=1;whiteSpace=wrap;html=1;fillColor=#fff2cc;strokeColor=#d6b656;" parent="1" vertex="1">
          <mxGeometry x="639" y="270" width="120" height="40" as="geometry" />
        </mxCell>
      </root>
    </mxGraphModel>
  </diagram>
</mxfile>
